<?xml version="1.0" encoding="UTF-8"?>
<svg width="96px" height="36px" viewBox="0 0 96 36" version="1.1" xmlns="http://www.w3.org/2000/svg" xmlns:xlink="http://www.w3.org/1999/xlink">
    <!-- Generator: Sketch 51.3 (57544) - http://www.bohemiancoding.com/sketch -->
    <title>logo</title>
    <desc>Created with Sketch.</desc>
    <defs></defs>
    <g id="Page-1" stroke="none" stroke-width="1" fill="none" fill-rule="evenodd">
        <g id="logo" fill-rule="nonzero">
            <path d="M49.7361,11.2703 L49.7361,10.7703 L49.2361,10.7703 L47.0314,10.7703 L46.5314,10.7703 L46.5314,11.2703 L46.5314,27.6757 C46.5314,28.1991 46.4038,28.3864 46.3279,28.4563 C46.2455,28.5319 46.1049,28.5811 45.8464,28.5811 C45.5547,28.5811 45.1345,28.5157 44.7619,28.4419 C44.5811,28.4061 44.4206,28.3703 44.3054,28.3434 C44.2479,28.3299 44.202,28.3188 44.1707,28.3111 L44.1353,28.3023 L44.1266,28.3001 L44.1247,28.2996 L44.1244,28.2995 L44.1243,28.2995 L43.5,28.1391 L43.5,28.7838 L43.5,30.6486 L43.5,31.0194 L43.8548,31.1271 L44,30.6486 C43.8548,31.1271 43.8548,31.1271 43.8549,31.1271 L43.855,31.1272 L43.8554,31.1273 L43.8565,31.1276 L43.8599,31.1286 L43.8717,31.1321 L43.9142,31.1445 C43.9505,31.1549 44.0027,31.1694 44.068,31.1868 C44.1985,31.2214 44.3824,31.2674 44.5988,31.3134 C45.0261,31.4042 45.6026,31.5 46.1495,31.5 C46.7309,31.5 47.6386,31.4254 48.4052,30.8534 C49.2001,30.2603 49.7361,29.2172 49.7361,27.5135 L49.7361,11.2703 Z M69.2422,11.1386 L69.2422,6 L69.2422,5.5 L68.7422,5.5 L66.5375,5.5 L66.0375,5.5 L66.0375,6 L66.0375,25.0811 L66.0375,25.4552 L66.3964,25.5608 L66.5375,25.0811 C66.3964,25.5608 66.3965,25.5608 66.3965,25.5608 L66.3967,25.5608 L66.3972,25.561 L66.3989,25.5615 L66.4045,25.5631 L66.4252,25.5691 C66.4431,25.5742 66.469,25.5815 66.5023,25.5908 C66.5689,25.6092 66.6653,25.6354 66.7865,25.6666 C67.0287,25.729 67.3709,25.8121 67.773,25.8951 C68.5718,26.06 69.6296,26.2297 70.6162,26.2297 C71.8857,26.2297 73.4397,26.0227 74.6654,24.8474 C75.8907,23.6724 76.6829,21.6321 76.6829,18.2162 C76.6829,14.9006 76.0507,12.9185 75.0728,11.7646 C74.0734,10.5853 72.7962,10.3649 71.7736,10.3649 C70.6839,10.3649 69.8549,10.7417 69.2422,11.1386 Z M89.6004,18.3194 L89.6004,18.319 C89.7262,15.4271 89.3077,13.4403 88.4517,12.164 C87.5707,10.8506 86.2794,10.3649 84.8845,10.3649 C83.5154,10.3649 82.1346,10.8135 81.1126,12.1093 C80.1077,13.3833 79.5067,15.406 79.5067,18.4324 C79.5067,21.7296 80.2044,23.7115 81.3182,24.8614 C82.4414,26.0209 83.886,26.2297 85.105,26.2297 C85.8435,26.2297 86.6532,26.1005 87.2644,25.9765 C87.573,25.9139 87.8372,25.8513 88.0247,25.8042 C88.1186,25.7807 88.1934,25.7609 88.2453,25.747 L88.3055,25.7305 L88.3218,25.726 L88.3263,25.7247 L88.3277,25.7243 L88.3281,25.7242 L88.3283,25.7242 C88.3283,25.7241 88.3284,25.7241 88.1915,25.2432 L88.3284,25.7241 L88.6915,25.6208 L88.6915,25.2432 L88.6915,23.3514 L88.6915,22.7119 L88.0709,22.8661 L88.0708,22.8661 L88.0699,22.8664 L88.0659,22.8674 L88.0493,22.8714 L87.984,22.8872 C87.9269,22.9009 87.8438,22.9206 87.7407,22.9443 C87.5344,22.9916 87.249,23.0547 86.9329,23.1178 C86.286,23.2467 85.5593,23.3649 85.105,23.3649 C84.5106,23.3649 83.9665,23.2656 83.5405,22.7616 C83.1234,22.2684 82.7473,21.3053 82.691,19.4189 L89.0733,19.4189 L89.5517,19.4189 L89.5729,18.9411 L89.6004,18.3194 Z M95,25.9595 L95.5,25.9595 L95.5,25.4595 L95.5,6 L95.5,5.5 L95,5.5 L92.795,5.5 L92.295,5.5 L92.295,6 L92.295,25.4595 L92.295,25.9595 L92.795,25.9595 L95,25.9595 Z M50.1219,7.4865 C50.1219,6.4023 49.2394,5.5 48.1337,5.5 C47.0281,5.5 46.1456,6.4023 46.1456,7.4865 C46.1456,8.5707 47.0281,9.473 48.1337,9.473 C49.2394,9.473 50.1219,8.5707 50.1219,7.4865 Z M63.4887,18.2973 C63.4887,15.1999 62.838,13.1989 61.759,11.9707 C60.667,10.7276 59.2162,10.3649 57.8352,10.3649 C56.3753,10.3649 54.9246,10.7808 53.8535,12.049 C52.7973,13.2994 52.1818,15.2962 52.1818,18.2973 C52.1818,21.4062 52.8248,23.4082 53.9011,24.634 C54.9912,25.8756 56.4438,26.2297 57.8352,26.2297 C59.2222,26.2297 60.6763,25.8915 61.7684,24.6554 C62.8463,23.4354 63.4887,21.4318 63.4887,18.2973 Z M60.284,18.2973 C60.284,20.6005 59.8635,21.9235 59.3619,22.657 C58.8771,23.3659 58.2978,23.5541 57.8352,23.5541 C57.3692,23.5541 56.791,23.3699 56.308,22.6663 C55.8073,21.937 55.3865,20.6148 55.3865,18.2973 C55.3865,16.002 55.7235,14.6707 56.1862,13.926 C56.6183,13.2306 57.1805,13.0135 57.8352,13.0135 C58.468,13.0135 59.0252,13.1978 59.459,13.864 C59.926,14.5813 60.284,15.9069 60.284,18.2973 Z M73.4783,18.2162 C73.4783,20.856 73.0047,22.1547 72.4712,22.7947 C71.9663,23.4005 71.3351,23.5 70.6988,23.5 C70.3393,23.5 69.8812,23.4442 69.498,23.3844 C69.4061,23.37 69.32,23.3557 69.2422,23.3422 L69.2422,13.9343 C69.3713,13.8478 69.555,13.7325 69.772,13.6175 C70.2211,13.3796 70.7533,13.1757 71.2224,13.1757 C71.9661,13.1757 72.399,13.2144 72.7424,13.691 C72.9361,13.9596 73.1244,14.4018 73.2615,15.1388 C73.398,15.8726 73.4783,16.8679 73.4783,18.2162 Z M85.973,13.7214 C86.2562,14.341 86.4432,15.3737 86.4743,17.0135 L82.7295,17.0135 C82.798,15.5866 83.004,14.5738 83.3419,13.9136 C83.5257,13.5546 83.74,13.3169 83.9782,13.1663 C84.2149,13.0167 84.508,12.9324 84.8845,12.9324 C85.1375,12.9324 85.3321,12.9881 85.4924,13.095 C85.6551,13.2035 85.8221,13.3913 85.973,13.7214 Z" id="Shape" stroke="#2A2F45" fill="#2A2F45"></path>
            <path d="M12.2081,5.7612 L10.0638,4.7147 C6.6441,3.0457 3.0457,6.6442 4.7147,10.0639 L5.7612,12.2081 L9.1733,11.0342 C10.0471,10.7336 10.7336,10.0471 11.0342,9.1734 L12.2081,5.7612 Z" id="Shape" fill="#00A8FF"></path>
            <path d="M5.7612,23.7919 L4.7147,25.9361 C3.0457,29.3558 6.6441,32.9543 10.0638,31.2853 L12.2081,30.2388 L11.0342,26.8266 C10.7336,25.9529 10.0471,25.2664 9.1733,24.9658 L5.7612,23.7919 Z" id="Shape" fill="#00A8FF"></path>
            <path d="M23.7918,30.2388 L25.9361,31.2853 C29.3558,32.9543 32.9542,29.3558 31.2852,25.9361 L30.2387,23.7919 L26.8266,24.9658 C25.9528,25.2664 25.2663,25.9529 24.9657,26.8266 L23.7918,30.2388 Z" id="Shape" fill="#00A8FF"></path>
            <path d="M30.2387,12.2081 L31.2852,10.0639 C32.9542,6.6442 29.3558,3.0457 25.9361,4.7147 L23.7919,5.7612 L24.9657,9.1734 C25.2663,10.0471 25.9528,10.7336 26.8266,11.0342 L30.2387,12.2081 Z" id="Shape" fill="#00A8FF"></path>
            <path d="M14.2176,2.9942 C15.4555,-0.60406 20.5445,-0.60406 21.7824,2.9942 L24.0202,9.4987 C24.421,10.6637 25.3363,11.579 26.5013,11.9798 L33.0058,14.2176 C36.6041,15.4555 36.6041,20.5445 33.0058,21.7824 L26.5013,24.0202 C25.3363,24.421 24.421,25.3363 24.0202,26.5013 L21.7824,33.0058 C20.5445,36.6041 15.4555,36.6041 14.2176,33.0058 L11.9798,26.5013 C11.579,25.3363 10.6637,24.421 9.4987,24.0202 L2.9942,21.7824 C-0.60406,20.5445 -0.60406,15.4555 2.9942,14.2176 L9.4987,11.9798 C10.6637,11.579 11.579,10.6637 11.9798,9.4987 L14.2176,2.9942 Z" id="Shape" fill="#00438C"></path>
        </g>
    </g>
</svg>