<svg width="41" height="41" viewBox="0 0 41 41" fill="none" xmlns="http://www.w3.org/2000/svg">
<path d="M11.6264 1.58863C12.9613 2.34504 14.4673 3.19847 16.4366 3.73019C15.8297 4.45706 15.5713 5.39502 15.2736 6.47557C14.8106 8.15677 14.2525 10.1831 12.1389 12.2967C10.0261 14.4095 7.9979 14.9705 6.3144 15.4361C5.27097 15.7247 4.35925 15.9769 3.6426 16.5393C3.1152 14.3227 2.2065 12.7197 1.4286 11.3477C0.648625 9.97181 0 8.82763 0 7.53019C0 5.03799 1.6773 1.86179 5.4161 0.386787C7.82883 -0.563387 9.51349 0.391275 11.6264 1.58863Z" fill="url(#paint0_linear)"/>
<path d="M41 7.53018C41 5.03798 39.3202 1.86178 35.5815 0.386882C33.1706 -0.563118 31.4925 0.390182 29.3855 1.58718C27.9913 2.37917 26.4092 3.27789 24.303 3.80238C24.8326 4.43797 25.0633 5.27485 25.3358 6.26333C25.7891 7.9077 26.358 9.97146 28.6108 12.2243C30.8635 14.477 32.9242 15.0467 34.5663 15.5007C35.6541 15.8013 36.5587 16.0513 37.2133 16.7059C37.2401 16.7327 37.2666 16.76 37.2929 16.7879C37.8114 14.4431 38.7603 12.772 39.5683 11.3491C40.3499 9.97233 41 8.82741 41 7.53018Z" fill="url(#paint1_linear)"/>
<path d="M3.6374 24.4728C4.27253 25.0009 5.1075 25.2317 6.09315 25.5042C7.73525 25.958 9.7961 26.5276 12.048 28.7795C14.2998 31.0313 14.8698 33.0921 15.3241 34.7345C15.6081 35.7616 15.8472 36.626 16.4239 37.2701C14.4564 37.8013 12.9525 38.6533 11.6199 39.4083C9.50972 40.6038 7.82878 41.5561 5.4161 40.6058C1.6773 39.1309 0 35.9525 0 33.4626C0 32.165 0.648413 31.0208 1.42844 29.6445C2.20367 28.2765 3.10937 26.6783 3.6374 24.4728Z" fill="url(#paint2_linear)"/>
<path d="M29.3816 39.4136C27.9839 38.62 26.3971 37.7191 24.2832 37.1949C24.8498 36.4779 25.1023 35.5654 25.3917 34.5194C25.8569 32.8382 26.4175 30.8122 28.531 28.6986C30.6459 26.5838 32.674 26.0247 34.3559 25.5611C35.5349 25.2361 36.5442 24.9578 37.2935 24.2234C37.811 26.5639 38.7566 28.232 39.5619 29.6524L39.5624 29.6533C40.3422 31.0291 40.9904 32.1726 40.9904 33.4699C40.9904 35.9597 39.3105 39.1383 35.5717 40.6132C33.1666 41.5628 31.4894 40.6105 29.3826 39.4142L29.3816 39.4136Z" fill="url(#paint3_linear)"/>
<path d="M23.4411 6.43148C22.3906 5.38098 20.3438 4.75028 18.1463 5.70448C15.3009 6.94128 16.9382 10.1687 13.4216 13.6852C9.90513 17.2018 6.66953 15.5728 5.43163 18.4191C4.47753 20.6167 5.10923 22.6624 6.15973 23.7129C7.53233 25.0855 10.2179 24.3284 13.3457 27.4562C16.4735 30.584 15.7175 33.2707 17.0901 34.6433C18.1396 35.6928 20.1863 36.3255 22.3839 35.3713C25.2302 34.1335 23.5992 30.9061 27.1168 27.3886C30.6343 23.871 33.8647 25.5051 35.0975 22.6639C36.0517 20.4663 35.42 18.4185 34.3705 17.369C32.9979 15.9964 30.3123 16.7536 27.1834 13.6248C24.0546 10.4959 24.8136 7.80398 23.4411 6.43148Z" fill="#0054B1"/>
<defs>
<linearGradient id="paint0_linear" x1="6.06956" y1="7.58219" x2="39.7955" y2="36.6084" gradientUnits="userSpaceOnUse">
<stop stop-color="#00A8FF"/>
<stop offset="1" stop-color="#004EDA"/>
</linearGradient>
<linearGradient id="paint1_linear" x1="6.06956" y1="7.58219" x2="39.7955" y2="36.6084" gradientUnits="userSpaceOnUse">
<stop stop-color="#00A8FF"/>
<stop offset="1" stop-color="#004EDA"/>
</linearGradient>
<linearGradient id="paint2_linear" x1="6.06956" y1="7.58219" x2="39.7955" y2="36.6084" gradientUnits="userSpaceOnUse">
<stop stop-color="#00A8FF"/>
<stop offset="1" stop-color="#004EDA"/>
</linearGradient>
<linearGradient id="paint3_linear" x1="6.06956" y1="7.58219" x2="39.7955" y2="36.6084" gradientUnits="userSpaceOnUse">
<stop stop-color="#00A8FF"/>
<stop offset="1" stop-color="#004EDA"/>
</linearGradient>
</defs>
</svg>
