<?xml version="1.0" encoding="UTF-8"?>
<svg width="64px" height="64px" viewBox="0 0 64 64" version="1.1" xmlns="http://www.w3.org/2000/svg" xmlns:xlink="http://www.w3.org/1999/xlink">
    <!-- Generator: Sketch 51.3 (57544) - http://www.bohemiancoding.com/sketch -->
    <title>logotype</title>
    <desc>Created with Sketch.</desc>
    <defs></defs>
    <g id="Page-1" stroke="none" stroke-width="1" fill="none" fill-rule="evenodd">
        <g id="logotype" fill-rule="nonzero">
            <path d="M55.4456,1.1957 C61.2086,3.4691 63.7979,8.365 63.7979,12.2066 C63.7979,14.2065 62.7962,15.9706 61.591,18.0931 C60.3455,20.2864 58.8828,22.8624 58.0837,26.4767 C58.0431,26.4337 58.0022,26.3916 57.9609,26.3504 C56.9519,25.3413 55.5583,24.9561 53.8816,24.4927 C51.3502,23.7929 48.1734,22.9148 44.7008,19.4422 C41.2282,15.9695 40.3514,12.7886 39.6527,10.2539 C39.2327,8.7303 38.877,7.4401 38.0607,6.4604 C41.3074,5.6519 43.7459,4.2667 45.895,3.0458 C49.1427,1.2008 51.7294,-0.2686 55.4456,1.1957 Z" id="Shape" fill="#4F6DF5"></path>
            <path d="M25.9351,6.3491 C22.8992,5.5294 20.5774,4.2137 18.5197,3.0476 C15.2625,1.2018 12.667,-0.2691 8.9478,1.1955 C3.1848,3.4691 0.5993,8.365 0.5993,12.2066 C0.5993,14.2068 1.5989,15.9699 2.8014,18.091 C4.0004,20.2059 5.4012,22.6768 6.2141,26.0935 C7.3191,25.2264 8.7237,24.8379 10.3325,24.393 C12.9275,23.6753 16.0538,22.8106 19.3106,19.5538 C22.5685,16.2959 23.4288,13.1726 24.1426,10.5812 C24.6013,8.9155 24.9996,7.4697 25.9351,6.3491 Z" id="Shape" fill="#4F6DF5"></path>
            <path d="M6.2062,38.3225 C7.1852,39.1366 8.4724,39.4924 9.992,39.9123 C12.5232,40.6119 15.6993,41.4897 19.1705,44.961 C22.6418,48.4322 23.5203,51.609 24.2204,54.1407 C24.6583,55.7243 25.0265,57.0555 25.9156,58.0486 C22.8828,58.8673 20.5647,60.1806 18.5106,61.3444 C15.2578,63.1872 12.6669,64.6551 8.9478,63.1903 C3.1848,60.9169 0.5993,56.0175 0.5993,52.1795 C0.5993,50.1793 1.5989,48.4156 2.8014,46.2937 C3.9965,44.1849 5.3921,41.7224 6.2062,38.3225 Z" id="Shape" fill="#4F6DF5"></path>
            <path d="M38.0302,57.9326 C41.2892,58.7408 43.7355,60.1299 45.8902,61.3534 C49.1378,63.1974 51.7231,64.6654 55.4306,63.2016 C61.1936,60.9282 63.783,56.0286 63.783,52.1908 C63.783,50.1907 62.7837,48.4278 61.5813,46.3068 C60.34,44.1171 58.8823,41.5458 58.0846,37.9381 C56.9294,39.0701 55.3741,39.4989 53.5565,39.9999 C50.9639,40.7146 47.8377,41.5763 44.5779,44.8362 C41.32,48.0941 40.4559,51.2171 39.7389,53.8085 C39.2927,55.4208 38.9036,56.8274 38.0302,57.9326 Z" id="Shape" fill="#4F6DF5"></path>
            <path d="M35.9145,14.6165 C34.5992,13.3012 32.0364,12.5115 29.2848,13.7063 C25.7221,15.2549 27.7721,19.296 23.369,23.6991 C18.9659,28.1022 14.9145,26.0626 13.3645,29.6264 C12.1698,32.3781 12.9608,34.9396 14.2761,36.2549 C15.9948,37.9735 19.3575,37.0255 23.2739,40.942 C27.1903,44.8584 26.2437,48.2224 27.9623,49.9411 C29.2764,51.2552 31.8391,52.0474 34.5907,50.8526 C38.1547,49.3027 36.1125,45.2617 40.5169,40.8573 C44.9213,36.4529 48.9661,38.4989 50.5097,34.9414 C51.7044,32.1898 50.9135,29.6257 49.5995,28.3117 C47.8808,26.593 44.518,27.5411 40.6003,23.6234 C36.6826,19.7057 37.6331,16.3351 35.9145,14.6165 Z" id="Shape" fill="#3F56C0"></path>
        </g>
    </g>
</svg>