<svg width="54" height="55" viewBox="0 0 54 55" fill="none" xmlns="http://www.w3.org/2000/svg">
<path d="M28.3967 0.0573459C27.8992 0.0196359 27.4007 0 26.9022 0C12.0445 0 0 12.3122 0 27.5C0 42.6878 12.0445 55 26.9022 55C41.7598 55 53.8043 42.6878 53.8043 27.5C53.8043 19.9623 52.6311 13.1876 47.8261 8.22011V27.5C47.8261 39.5107 38.3349 49.0217 26.9022 49.0217C15.4694 49.0217 5.97826 39.5107 5.97826 27.5C5.97826 15.4893 15.4694 5.97826 26.9022 5.97826C27.4043 5.97826 27.9027 5.99661 28.3967 6.03271V0.0573459Z" fill="#246BFA"/>
<path d="M34.0971 7.47283V30.788C34.0971 32.731 30.4521 36.4674 26.9139 36.4674C23.3757 36.4674 20.4005 34.0566 19.5415 30.788H13.4511C14.3939 37.3791 20.0622 42.4457 26.9139 42.4457C33.7656 42.4457 40.3481 36.4674 40.3481 30.788V4.03533C38.5227 2.98756 36.5008 2.03427 34.375 1.31763L34.0971 1.19566V7.47283Z" fill="#246BFA"/>
</svg>
