<?xml version="1.0" encoding="UTF-8"?>
<svg width="146px" height="51px" viewBox="0 0 146 51" version="1.1" xmlns="http://www.w3.org/2000/svg" xmlns:xlink="http://www.w3.org/1999/xlink">
    <!-- Generator: Sketch 51.3 (57544) - http://www.bohemiancoding.com/sketch -->
    <title>logo</title>
    <desc>Created with Sketch.</desc>
    <defs></defs>
    <g id="Page-1" stroke="none" stroke-width="1" fill="none" fill-rule="evenodd">
        <g id="logo" fill-rule="nonzero">
            <path d="M44.0391,0.7129 C48.6418,2.5286 50.7097,6.4386 50.7097,9.5067 C50.7097,11.1039 49.9096,12.5129 48.9471,14.208 C47.9525,15.9596 46.7843,18.0169 46.146,20.9034 C46.1136,20.8692 46.081,20.8355 46.048,20.8026 C45.2422,19.9967 44.1292,19.6891 42.7901,19.3189 C40.7683,18.7601 38.2313,18.0588 35.4579,15.2854 C32.6844,12.512 31.9842,9.9716 31.4262,7.9472 C31.0908,6.7304 30.8067,5.7 30.1547,4.9175 C32.7477,4.2719 34.6952,3.1655 36.4116,2.1905 C39.0054,0.717 41.0712,-0.4566 44.0391,0.7129 Z" id="Shape" fill="#4F6DF5"></path>
            <path d="M20.4707,4.8287 C18.0461,4.174 16.1918,3.1232 14.5484,2.1919 C11.9471,0.7178 9.8742,-0.4569 6.9039,0.7128 C2.3013,2.5286 0.2364,6.4386 0.2364,9.5067 C0.2364,11.1042 1.0347,12.5122 1.9951,14.2062 C2.9527,15.8953 4.0714,17.8687 4.7206,20.5974 C5.6031,19.905 6.7249,19.5947 8.0098,19.2393 C10.0823,18.6661 12.579,17.9756 15.1801,15.3745 C17.782,12.7726 18.469,10.2782 19.0391,8.2086 C19.4055,6.8783 19.7236,5.7236 20.4707,4.8287 Z" id="Shape" fill="#4F6DF5"></path>
            <path d="M4.7143,30.364 C5.4962,31.0143 6.5242,31.2984 7.7378,31.6338 C9.7594,32.1925 12.2959,32.8935 15.0682,35.6658 C17.8405,38.4381 18.5421,40.9753 19.1013,42.9972 C19.451,44.2619 19.745,45.3251 20.4551,46.1182 C18.033,46.7721 16.1817,47.8209 14.5411,48.7504 C11.9433,50.2222 9.8741,51.3945 6.9039,50.2247 C2.3013,48.409 0.2364,44.4961 0.2364,41.4309 C0.2364,39.8334 1.0347,38.4248 1.9951,36.7302 C2.9495,35.0461 4.0641,33.0794 4.7143,30.364 Z" id="Shape" fill="#4F6DF5"></path>
            <path d="M30.1304,46.0256 C32.7332,46.6711 34.6869,47.7804 36.4078,48.7576 C39.0015,50.2303 41.0662,51.4027 44.0271,50.2337 C48.6298,48.418 50.6978,44.505 50.6978,41.4399 C50.6978,39.8426 49.8996,38.4346 48.9394,36.7407 C47.948,34.9919 46.7839,32.9383 46.1467,30.057 C45.2241,30.9612 43.982,31.3036 42.5304,31.7037 C40.4599,32.2745 37.9632,32.9627 35.3597,35.5662 C32.7578,38.1681 32.0677,40.6623 31.495,42.7319 C31.1387,44.0196 30.8279,45.1429 30.1304,46.0256 Z" id="Shape" fill="#4F6DF5"></path>
            <path d="M28.4413,11.4315 C27.3908,10.381 25.344,9.7503 23.1465,10.7045 C20.3011,11.9413 21.9384,15.1687 18.4218,18.6852 C14.9053,22.2018 11.6697,20.5728 10.4318,23.4191 C9.4776,25.6167 10.1094,27.6624 11.1599,28.7129 C12.5325,30.0855 15.2181,29.3284 18.3459,32.4562 C21.4737,35.584 20.7177,38.2707 22.0903,39.6433 C23.1398,40.6928 25.1865,41.3255 27.384,40.3713 C30.2304,39.1335 28.5994,35.9061 32.117,32.3886 C35.6345,28.871 38.8649,30.5051 40.0976,27.6639 C41.0519,25.4663 40.4201,23.4185 39.3707,22.369 C37.9981,20.9964 35.3124,21.7536 32.1836,18.6248 C29.0547,15.4959 29.8138,12.804 28.4413,11.4315 Z" id="Shape" fill="#3F56C0"></path>
            <path d="M73.2162,13.6486 L73.2162,13.1486 L72.7162,13.1486 L69.2568,13.1486 L68.7568,13.1486 L68.7568,13.6486 L68.7568,39.8973 C68.7568,40.78 68.5455,41.1794 68.3418,41.3703 C68.1341,41.5651 67.8265,41.6459 67.3973,41.6459 C66.9106,41.6459 66.2284,41.5363 65.6422,41.418 C65.3546,41.3599 65.0996,41.3018 64.9166,41.2582 C64.8252,41.2364 64.752,41.2183 64.702,41.2058 L64.645,41.1913 L64.6308,41.1876 L64.6274,41.1868 L64.6267,41.1866 L64.6266,41.1866 L64,41.0224 L64,41.6703 L64,44.654 L64,45.0227 L64.3522,45.1317 L64.5,44.654 C64.3522,45.1317 64.3522,45.1317 64.3523,45.1317 L64.3525,45.1318 L64.3529,45.1319 L64.3544,45.1324 L64.3593,45.1339 L64.3767,45.1391 C64.3917,45.1437 64.4133,45.1501 64.4411,45.1582 C64.4966,45.1744 64.5767,45.1972 64.6774,45.2245 C64.8785,45.279 65.1626,45.3514 65.4968,45.4238 C66.1596,45.5674 67.0427,45.7162 67.873,45.7162 C68.7693,45.7162 70.118,45.5967 71.246,44.7384 C72.4002,43.8602 73.2162,42.2948 73.2162,39.6378 L73.2162,13.6486 Z M103.824,13.9979 L103.824,5.2162 L103.824,4.7162 L103.324,4.7162 L99.865,4.7162 L99.365,4.7162 L99.365,5.2162 L99.365,35.7459 L99.365,36.1179 L99.721,36.2248 L99.865,35.7459 C99.721,36.2248 99.721,36.2249 99.721,36.2249 L99.722,36.225 L99.722,36.2252 L99.725,36.2259 L99.733,36.2284 L99.764,36.2376 C99.792,36.2456 99.832,36.2571 99.883,36.2717 C99.986,36.3008 100.136,36.3422 100.324,36.3917 C100.701,36.4906 101.233,36.6224 101.859,36.7541 C103.105,37.0164 104.744,37.2838 106.265,37.2838 C108.234,37.2838 110.582,36.9544 112.425,35.1521 C114.266,33.3524 115.5,30.1865 115.5,24.7621 C115.5,19.486 114.512,16.4029 113.044,14.6372 C111.553,12.8436 109.648,12.5 108.081,12.5 C106.17,12.5 104.792,13.2815 103.824,13.9979 Z M135.77,24.9136 L135.77,24.9132 C135.966,20.3117 135.309,17.2119 134.018,15.2495 C132.701,13.2482 130.775,12.5 128.654,12.5 C126.568,12.5 124.492,13.1944 122.956,15.1806 C121.438,17.1433 120.5,20.2995 120.5,25.1081 C120.5,30.3492 121.589,33.4241 123.259,35.1822 C124.941,36.9524 127.112,37.2838 129,37.2838 C130.132,37.2838 131.381,37.0813 132.334,36.8842 C132.813,36.785 133.223,36.6859 133.515,36.6114 C133.66,36.5741 133.776,36.543 133.856,36.521 C133.896,36.51 133.927,36.5013 133.949,36.4953 L133.973,36.4883 L133.98,36.4864 L133.982,36.4858 L133.982,36.4857 L133.983,36.4856 C133.983,36.4856 133.983,36.4856 133.843,36.0054 L133.983,36.4856 L134.343,36.3809 L134.343,36.0054 L134.343,32.9784 L134.343,32.3359 L133.72,32.4937 L133.72,32.4938 L133.719,32.4942 L133.712,32.4958 L133.686,32.5024 L133.582,32.528 C133.492,32.5501 133.36,32.5818 133.198,32.6199 C132.872,32.6961 132.421,32.7977 131.922,32.8992 C130.909,33.1052 129.743,33.3 129,33.3 C128.04,33.3 127.081,33.1371 126.331,32.2322 C125.59,31.3381 124.977,29.6345 124.921,26.3865 L135.227,26.3865 L135.706,26.3865 L135.727,25.9082 L135.77,24.9136 Z M144.527,36.8513 L145.027,36.8513 L145.027,36.3513 L145.027,5.2162 L145.027,4.7162 L144.527,4.7162 L141.067,4.7162 L140.567,4.7162 L140.567,5.2162 L140.567,36.3513 L140.567,36.8513 L141.067,36.8513 L144.527,36.8513 Z M73.8216,7.5946 C73.8216,6.0331 72.5718,4.7162 70.9865,4.7162 C69.4012,4.7162 68.1514,6.0331 68.1514,7.5946 C68.1514,9.156 69.4012,10.473 70.9865,10.473 C72.5718,10.473 73.8216,9.156 73.8216,7.5946 Z M94.796,24.8919 C94.796,19.9721 93.782,16.8578 92.156,14.9709 C90.516,13.0671 88.331,12.5 86.21,12.5 C83.97,12.5 81.785,13.1489 80.176,15.0918 C78.583,17.015 77.623,20.125 77.623,24.8919 C77.623,29.8314 78.626,32.9466 80.247,34.829 C81.883,36.7293 84.07,37.2838 86.21,37.2838 C88.344,37.2838 90.533,36.7534 92.171,34.8625 C93.794,32.99 94.796,29.8732 94.796,24.8919 Z M90.337,24.8919 C90.337,28.6073 89.673,30.7954 88.838,32.0404 C88.02,33.2601 87.021,33.6027 86.21,33.6027 C85.395,33.6027 84.397,33.268 83.581,32.0559 C82.747,30.817 82.083,28.6297 82.083,24.8919 C82.083,21.2011 82.612,19.0005 83.383,17.7358 C83.762,17.1131 84.197,16.7214 84.659,16.4815 C85.123,16.2402 85.643,16.1378 86.21,16.1378 C86.752,16.1378 87.259,16.2242 87.719,16.4457 C88.174,16.6651 88.61,17.0302 88.994,17.6312 C89.775,18.8543 90.337,21.0492 90.337,24.8919 Z M111.041,24.7621 C111.041,29.0088 110.296,31.1768 109.391,32.2836 C108.517,33.3531 107.42,33.5162 106.395,33.5162 C105.808,33.5162 105.073,33.4242 104.468,33.3278 C104.22,33.2884 103.999,33.2489 103.824,33.2162 L103.824,17.7497 C103.862,17.7228 103.905,17.6928 103.953,17.6602 C104.162,17.5175 104.459,17.3272 104.811,17.1372 C105.528,16.7495 106.412,16.3973 107.216,16.3973 C108.373,16.3973 109.197,16.4475 109.83,17.3426 C110.169,17.8224 110.476,18.5785 110.695,19.7816 C110.914,20.9814 111.041,22.5945 111.041,24.7621 Z M130.619,17.4424 C131.108,18.5312 131.406,20.3258 131.438,23.1378 L124.975,23.1378 C125.068,20.6754 125.398,18.9013 125.982,17.7378 C126.289,17.1257 126.658,16.7007 127.084,16.4264 C127.507,16.1533 128.021,16.0081 128.654,16.0081 C129.093,16.0081 129.455,16.1075 129.762,16.3162 C130.072,16.5269 130.366,16.8762 130.619,17.4424 Z" id="Shape" stroke="#2A2F45" fill="#2A2F45"></path>
        </g>
    </g>
</svg>