<svg width="113" height="41" viewBox="0 0 113 41" fill="none" xmlns="http://www.w3.org/2000/svg">
<path d="M55.9681 11.5351V11.0351H55.4681H52.7447H52.2447V11.5351V31.8778C52.2447 32.5444 52.0828 32.8164 51.9545 32.9347C51.8204 33.0585 51.6103 33.1205 51.2809 33.1205C50.9083 33.1205 50.3796 33.0374 49.9187 32.9458C49.6937 32.9011 49.4941 32.8563 49.3509 32.8227C49.2794 32.8059 49.2222 32.792 49.1831 32.7824L49.1388 32.7713L49.1278 32.7685L49.1253 32.7679L49.1248 32.7677L49.1248 32.7677L49.1248 32.7677L49.1248 32.7677L48.5 32.6066V33.2519V35.5643V35.9347L48.8543 36.0426L49 35.5643C48.8543 36.0426 48.8543 36.0426 48.8544 36.0426L48.8545 36.0427L48.855 36.0428L48.8562 36.0432L48.8602 36.0444L48.8743 36.0486L48.9258 36.0636C48.9701 36.0763 49.0338 36.0942 49.1137 36.1155C49.2734 36.1581 49.4987 36.2146 49.7638 36.2712C50.2884 36.3831 50.9915 36.5 51.6553 36.5C52.3666 36.5 53.4563 36.4075 54.3721 35.7215C55.3158 35.0146 55.9681 33.7625 55.9681 31.6768V11.5351ZM80.0639 11.5946V5V4.5H79.5639H76.8405H76.3405V5V28.6605V29.0342L76.6989 29.1401L76.8405 28.6605C76.6989 29.1401 76.6989 29.1401 76.699 29.1401L76.6992 29.1402L76.6998 29.1403L76.7017 29.1409L76.7085 29.1429L76.7336 29.1501C76.7554 29.1564 76.7871 29.1654 76.8279 29.1768C76.9096 29.1995 77.028 29.2317 77.177 29.2703C77.4747 29.3473 77.8955 29.4498 78.3901 29.5523C79.3737 29.7562 80.6716 29.9649 81.8788 29.9649C83.4373 29.9649 85.319 29.7091 86.8 28.2835C88.2802 26.8586 89.2554 24.3679 89.2554 20.1481C89.2554 16.048 88.4758 13.6251 87.2949 12.2264C86.0922 10.8019 84.5554 10.5324 83.3086 10.5324C81.8817 10.5324 80.8249 11.0678 80.0639 11.5946ZM105.212 20.2707L105.212 20.2703C105.367 16.6943 104.85 14.2619 103.814 12.711C102.752 11.1225 101.198 10.5324 99.5044 10.5324C97.8395 10.5324 96.1717 11.0789 94.9367 12.6505C93.7191 14.2002 92.9788 16.6766 92.9788 20.4162C92.9788 24.4913 93.8384 26.9108 95.1829 28.304C96.537 29.7072 98.2817 29.9649 99.7767 29.9649C100.678 29.9649 101.669 29.8064 102.421 29.6532C102.8 29.576 103.125 29.4988 103.355 29.4407C103.47 29.4117 103.562 29.3874 103.626 29.3702C103.658 29.3616 103.682 29.3548 103.699 29.3501L103.719 29.3446L103.725 29.343L103.726 29.3426L103.727 29.3425L103.727 29.3424C103.727 29.3424 103.727 29.3424 103.589 28.8616L103.727 29.3424L104.089 29.2387V28.8616V26.5157V25.8757L103.469 26.0305L103.468 26.0306L103.467 26.0309L103.462 26.0321L103.441 26.0372L103.36 26.0569C103.289 26.074 103.186 26.0985 103.059 26.1279C102.803 26.1869 102.449 26.2654 102.057 26.3438C101.259 26.5035 100.351 26.6524 99.7767 26.6524C99.0305 26.6524 98.3148 26.5275 97.7549 25.8626C97.2048 25.2095 96.7308 23.9508 96.6739 21.5195H104.679H105.157L105.178 21.0415L105.212 20.2707ZM112 29.6297H112.5V29.1297V5V4.5H112H109.277H108.777V5V29.1297V29.6297H109.277H112ZM56.4447 6.84324C56.4447 5.56626 55.4084 4.5 54.1064 4.5C52.8044 4.5 51.7681 5.56626 51.7681 6.84324C51.7681 8.12023 52.8044 9.18649 54.1064 9.18649C55.4084 9.18649 56.4447 8.12023 56.4447 6.84324ZM72.9566 20.2487C72.9566 16.4219 72.1553 13.9753 70.8498 12.4836C69.531 10.9765 67.7769 10.5324 66.0906 10.5324C64.3091 10.5324 62.555 11.0411 61.2612 12.5789C59.9826 14.0985 59.2246 16.5409 59.2246 20.2487C59.2246 24.0902 60.0165 26.5378 61.3185 28.0262C62.6347 29.5309 64.3906 29.9649 66.0906 29.9649C67.7861 29.9649 69.5436 29.5501 70.8617 28.0525C72.1652 26.5714 72.9566 24.1223 72.9566 20.2487ZM69.2332 20.2487C69.2332 23.1164 68.712 24.7852 68.0731 25.7231C67.451 26.6363 66.6982 26.887 66.0906 26.887C65.4795 26.887 64.7279 26.6419 64.1076 25.7349C63.4695 24.8019 62.948 23.134 62.948 20.2487C62.948 17.3954 63.3645 15.7167 63.954 14.7642C64.5129 13.8613 65.2486 13.5768 66.0906 13.5768C66.9009 13.5768 67.6315 13.8172 68.1945 14.6852C68.7909 15.6046 69.2332 17.2776 69.2332 20.2487ZM85.532 20.1481C85.532 23.4304 84.9464 25.0764 84.2601 25.903C83.6027 26.6948 82.7788 26.82 81.9809 26.82C81.5275 26.82 80.9545 26.7497 80.4797 26.6752C80.3253 26.651 80.184 26.6268 80.0639 26.6052V14.7742C80.0803 14.763 80.0976 14.7512 80.1158 14.739C80.2779 14.63 80.5087 14.4845 80.7816 14.3393C81.3418 14.0414 82.0197 13.7778 82.6277 13.7778C83.5428 13.7778 84.1375 13.8213 84.6003 14.4659C84.8537 14.819 85.0911 15.3866 85.2622 16.3098C85.4327 17.2299 85.532 18.4721 85.532 20.1481ZM100.956 14.524C101.323 15.3308 101.557 16.6677 101.588 18.7768H96.719C96.7978 16.9353 97.0554 15.6185 97.4945 14.7575C97.7291 14.2975 98.007 13.9846 98.3227 13.7843C98.6368 13.5851 99.0212 13.4762 99.5044 13.4762C99.8348 13.4762 100.099 13.5496 100.32 13.6975C100.543 13.8471 100.763 14.0997 100.956 14.524Z" fill="#2A2F45" stroke="#2A2F45"/>
<path d="M11.6264 1.58863C12.9613 2.34504 14.4673 3.19847 16.4366 3.73019C15.8297 4.45706 15.5713 5.39502 15.2736 6.47557C14.8106 8.15677 14.2525 10.1831 12.1389 12.2967C10.0261 14.4095 7.9979 14.9705 6.3144 15.4361C5.27097 15.7247 4.35925 15.9769 3.6426 16.5393C3.1152 14.3227 2.2065 12.7197 1.4286 11.3477C0.648625 9.97181 0 8.82763 0 7.53019C0 5.03799 1.6773 1.86179 5.4161 0.386787C7.82883 -0.563387 9.51349 0.391275 11.6264 1.58863Z" fill="url(#paint0_linear)"/>
<path d="M41 7.53018C41 5.03798 39.3202 1.86178 35.5815 0.386882C33.1706 -0.563118 31.4925 0.390182 29.3855 1.58718C27.9913 2.37917 26.4092 3.27789 24.303 3.80238C24.8326 4.43797 25.0633 5.27485 25.3358 6.26333C25.7891 7.9077 26.358 9.97146 28.6108 12.2243C30.8635 14.477 32.9242 15.0467 34.5663 15.5007C35.6541 15.8013 36.5587 16.0513 37.2133 16.7059C37.2401 16.7327 37.2666 16.76 37.2929 16.7879C37.8114 14.4431 38.7603 12.772 39.5683 11.3491C40.3499 9.97233 41 8.82741 41 7.53018Z" fill="url(#paint1_linear)"/>
<path d="M3.6374 24.4728C4.27253 25.0009 5.1075 25.2317 6.09315 25.5042C7.73525 25.958 9.7961 26.5276 12.048 28.7795C14.2998 31.0313 14.8698 33.0921 15.3241 34.7345C15.6081 35.7616 15.8472 36.626 16.4239 37.2701C14.4564 37.8013 12.9525 38.6533 11.6199 39.4083C9.50972 40.6038 7.82878 41.5561 5.4161 40.6058C1.6773 39.1309 0 35.9525 0 33.4626C0 32.165 0.648413 31.0208 1.42844 29.6445C2.20367 28.2765 3.10937 26.6783 3.6374 24.4728Z" fill="url(#paint2_linear)"/>
<path d="M29.3816 39.4136C27.9839 38.62 26.3971 37.7191 24.2832 37.1949C24.8498 36.4779 25.1023 35.5654 25.3917 34.5194C25.8569 32.8382 26.4175 30.8122 28.531 28.6986C30.6459 26.5838 32.674 26.0247 34.3559 25.5611C35.5349 25.2361 36.5442 24.9578 37.2935 24.2234C37.811 26.5639 38.7566 28.232 39.5619 29.6524L39.5624 29.6533C40.3422 31.0291 40.9904 32.1726 40.9904 33.4699C40.9904 35.9597 39.3105 39.1383 35.5717 40.6132C33.1666 41.5628 31.4894 40.6105 29.3826 39.4142L29.3816 39.4136Z" fill="url(#paint3_linear)"/>
<path d="M23.4411 6.43148C22.3906 5.38098 20.3438 4.75028 18.1463 5.70448C15.3009 6.94128 16.9382 10.1687 13.4216 13.6852C9.90513 17.2018 6.66953 15.5728 5.43163 18.4191C4.47753 20.6167 5.10923 22.6624 6.15973 23.7129C7.53233 25.0855 10.2179 24.3284 13.3457 27.4562C16.4735 30.584 15.7175 33.2707 17.0901 34.6433C18.1396 35.6928 20.1863 36.3255 22.3839 35.3713C25.2302 34.1335 23.5992 30.9061 27.1168 27.3886C30.6343 23.871 33.8647 25.5051 35.0975 22.6639C36.0517 20.4663 35.42 18.4185 34.3705 17.369C32.9979 15.9964 30.3123 16.7536 27.1834 13.6248C24.0546 10.4959 24.8136 7.80398 23.4411 6.43148Z" fill="#0054B1"/>
<defs>
<linearGradient id="paint0_linear" x1="6.06956" y1="7.58219" x2="39.7955" y2="36.6084" gradientUnits="userSpaceOnUse">
<stop stop-color="#00A8FF"/>
<stop offset="1" stop-color="#004EDA"/>
</linearGradient>
<linearGradient id="paint1_linear" x1="6.06956" y1="7.58219" x2="39.7955" y2="36.6084" gradientUnits="userSpaceOnUse">
<stop stop-color="#00A8FF"/>
<stop offset="1" stop-color="#004EDA"/>
</linearGradient>
<linearGradient id="paint2_linear" x1="6.06956" y1="7.58219" x2="39.7955" y2="36.6084" gradientUnits="userSpaceOnUse">
<stop stop-color="#00A8FF"/>
<stop offset="1" stop-color="#004EDA"/>
</linearGradient>
<linearGradient id="paint3_linear" x1="6.06956" y1="7.58219" x2="39.7955" y2="36.6084" gradientUnits="userSpaceOnUse">
<stop stop-color="#00A8FF"/>
<stop offset="1" stop-color="#004EDA"/>
</linearGradient>
</defs>
</svg>
