<?xml version="1.0" encoding="UTF-8"?>
<svg width="267px" height="177px" viewBox="0 0 267 177" version="1.1" xmlns="http://www.w3.org/2000/svg" xmlns:xlink="http://www.w3.org/1999/xlink">
    <!-- Generator: Sketch 51.3 (57544) - http://www.bohemiancoding.com/sketch -->
    <title>Group</title>
    <desc>Created with Sketch.</desc>
    <defs></defs>
    <g id="Page-1" stroke="none" stroke-width="1" fill="none" fill-rule="evenodd">
        <g id="Group">
            <polygon id="Polygon" fill="#FFFFFF" points="173 0 190.320508 10 190.320508 30 173 40 155.679492 30 155.679492 10"></polygon>
            <path d="M146,79.8867513 L122.519238,93.4433757 L122.519238,120.556624 L146,134.113249 L169.480762,120.556624 L169.480762,93.4433757 L146,79.8867513 Z" id="Polygon" stroke="#FFFFFF" stroke-width="5"></path>
            <path d="M44,77 L87.3012702,102 L87.3012702,152 L44,177 L0.698729811,152 L0.698729811,102 L44,77 Z M44.5,106 L25.0144284,117.25 L25.0144284,139.75 L44.5,151 L63.9855716,139.75 L63.9855716,117.25 L44.5,106 Z" id="Combined-Shape" fill="#FFFFFF"></path>
            <polygon id="Polygon" fill="#FFFFFF" points="256.026279 19 266.052559 24.7886752 266.052559 36.3660255 256.026279 42.1547007 246 36.3660255 246 24.7886752"></polygon>
        </g>
    </g>
</svg>