<?xml version="1.0" encoding="UTF-8"?>
<svg width="36px" height="36px" viewBox="0 0 36 36" version="1.1" xmlns="http://www.w3.org/2000/svg" xmlns:xlink="http://www.w3.org/1999/xlink">
    <!-- Generator: Sketch 51.3 (57544) - http://www.bohemiancoding.com/sketch -->
    <title>logo</title>
    <desc>Created with Sketch.</desc>
    <defs></defs>
    <g id="Page-1" stroke="none" stroke-width="1" fill="none" fill-rule="evenodd">
        <g id="logo" fill-rule="nonzero">
            <path d="M12.2081,5.7612 L10.0638,4.7147 C6.6441,3.0457 3.0457,6.6442 4.7147,10.0639 L5.7612,12.2081 L9.1733,11.0342 C10.0471,10.7336 10.7336,10.0471 11.0342,9.1734 L12.2081,5.7612 Z" id="Shape" fill="#1081e9"></path>
            <path d="M5.7612,23.7919 L4.7147,25.9361 C3.0457,29.3558 6.6441,32.9543 10.0638,31.2853 L12.2081,30.2388 L11.0342,26.8266 C10.7336,25.9529 10.0471,25.2664 9.1733,24.9658 L5.7612,23.7919 Z" id="Shape" fill="#1081e9"></path>
            <path d="M23.7918,30.2388 L25.9361,31.2853 C29.3558,32.9543 32.9542,29.3558 31.2852,25.9361 L30.2387,23.7919 L26.8266,24.9658 C25.9528,25.2664 25.2663,25.9529 24.9657,26.8266 L23.7918,30.2388 Z" id="Shape" fill="#1081e9"></path>
            <path d="M30.2387,12.2081 L31.2852,10.0639 C32.9542,6.6442 29.3558,3.0457 25.9361,4.7147 L23.7919,5.7612 L24.9657,9.1734 C25.2663,10.0471 25.9528,10.7336 26.8266,11.0342 L30.2387,12.2081 Z" id="Shape" fill="#1081e9"></path>
            <path d="M14.2176,2.9942 C15.4555,-0.60406 20.5445,-0.60406 21.7824,2.9942 L24.0202,9.4987 C24.421,10.6637 25.3363,11.579 26.5013,11.9798 L33.0058,14.2176 C36.6041,15.4555 36.6041,20.5445 33.0058,21.7824 L26.5013,24.0202 C25.3363,24.421 24.421,25.3363 24.0202,26.5013 L21.7824,33.0058 C20.5445,36.6041 15.4555,36.6041 14.2176,33.0058 L11.9798,26.5013 C11.579,25.3363 10.6637,24.421 9.4987,24.0202 L2.9942,21.7824 C-0.60406,20.5445 -0.60406,15.4555 2.9942,14.2176 L9.4987,11.9798 C10.6637,11.579 11.579,10.6637 11.9798,9.4987 L14.2176,2.9942 Z" id="Shape" fill="#09467f"></path>
        </g>
    </g>
</svg>
